PathFileType	4	(X/Y/Z)	/Users/itak/Documents/Research/Walk-IL/dataset/trc/00363_00011.trc
DataRate	CameraRate	NumFrames	NumMarkers	Units	OrigDataRate	OrigDataStartFrame	OrigNumFrames
100.000000	100.000000	4	56	mm	100.000000	52	416
Frame#	Time	RPSI			LPSI			L3			STRN			T10			C7			CLAV			RBAK			LBAK			LSHO			LUPA			LAEL			LAOL			LWPS			LFRA			LHPS			LHTS			RSHO			RUPA			RAEL			RAOL			RWPS			RFRA			RIFD			RHTS			RHPS			RBHD			LFHD			RFHD			LBHD			LHIP			RHIP			RASI			LASI			LKNE			LTHI			LANK			LTIP			LTOE			LMT1			LMT5			LHEE			RKNE			RTIP			RTOE			RMT1			RMT5			RHEE			LWTS			LIFD			RWTS			RTHI			RANK			*53			*54			*55			
		X1	Y1	Z1	X2	Y2	Z2	X3	Y3	Z3	X4	Y4	Z4	X5	Y5	Z5	X6	Y6	Z6	X7	Y7	Z7	X8	Y8	Z8	X9	Y9	Z9	X10	Y10	Z10	X11	Y11	Z11	X12	Y12	Z12	X13	Y13	Z13	X14	Y14	Z14	X15	Y15	Z15	X16	Y16	Z16	X17	Y17	Z17	X18	Y18	Z18	X19	Y19	Z19	X20	Y20	Z20	X21	Y21	Z21	X22	Y22	Z22	X23	Y23	Z23	X24	Y24	Z24	X25	Y25	Z25	X26	Y26	Z26	X27	Y27	Z27	X28	Y28	Z28	X29	Y29	Z29	X30	Y30	Z30	X31	Y31	Z31	X32	Y32	Z32	X33	Y33	Z33	X34	Y34	Z34	X35	Y35	Z35	X36	Y36	Z36	X37	Y37	Z37	X38	Y38	Z38	X39	Y39	Z39	X40	Y40	Z40	X41	Y41	Z41	X42	Y42	Z42	X43	Y43	Z43	X44	Y44	Z44	X45	Y45	Z45	X46	Y46	Z46	X47	Y47	Z47	X48	Y48	Z48	X49	Y49	Z49	X50	Y50	Z50	X51	Y51	Z51	X52	Y52	Z52	X53	Y53	Z53	X54	Y54	Z54	X55	Y55	Z55	X56	Y56	Z56	

53	0.52	-1320.393676757812	960.644287109375	933.5357055664062	-1327.765991210938	955.2173461914062	803.624755859375	-1331.340698242188	1027.07080078125	873.1159057617188	-1077.790893554688	1185.924194335938	840.5609741210938	-1320.90185546875	1144.751342773438	869.4947509765625	-1253.530029296875	1386.1904296875	840.7288818359375	-1106.463623046875	1315.295654296875	833.5682373046875	-1309.778198242188	1256.598754882812	919.329833984375	-1279.852294921875	1346.784912109375	742.2513427734375	-1199.806274414062	1351.799682617188	676.0914916992188	-1242.036743164062	1231.941772460938	619.72607421875	-1261.521850585938	1027.572143554688	621.5376586914062	-1312.345703125	1027.616455078125	688.379638671875	-1247.071166992188	768.4888305664062	620.707275390625	-1263.611694335938	921.6921997070312	619.5556030273438	-1257.372314453125	701.2708129882812	632.5517578125	-1195.701782226562	698.6318969726562	651.1468505859375	-1182.72607421875	1373.706665039062	999.0398559570312	-1192.733764648438	1311.621215820312	1065.374755859375	-1202.995361328125	1044.274658203125	1113.90380859375	-1254.630126953125	1038.581909179688	1034.833618164062	-1155.9013671875	795.6098022460938	1137.863037109375	-1184.207153320312	975.4785766601562	1122.725708007812	-1138.944091796875	629.1879272460938	1089.01953125	-1113.446899414062	698.9005737304688	1083.693359375	-1151.57666015625	710.8060913085938	1140.328857421875	-1184.367553710938	1588.474365234375	906.6458740234375	-1029.6826171875	1583.079833984375	767.948486328125	-1026.19140625	1588.499145507812	868.6209716796875	-1216.132568359375	1578.453125	766.0188598632812	-1240.841064453125	907.1759033203125	693.6873779296875	-1238.6787109375	904.18212890625	1039.642700195312	-1133.159912109375	928.5888671875	996.54931640625	-1121.932250976562	926.8336791992188	757.0236206054688	-1014.586364746094	492.3267211914062	685.6404418945312	-1067.96142578125	614.5643920898438	683.2550048828125	-1264.840087890625	134.0737457275391	672.3223876953125	-1135.599975585938	299.6355285644531	666.77490234375	-1073.77197265625	57.56568145751953	714.176025390625	-1140.245971679688	59.54853057861328	759.2393798828125	-1152.241821289062	86.90926361083984	649.1236572265625	-1293.576416015625	138.000244140625	741.7183227539062	-1226.96240234375	439.47021484375	1003.84765625	-1245.868408203125	318.9489440917969	983.991455078125	-1200.104736328125	47.41302490234375	925.471435546875	-1249.3203125	43.95788955688477	878.9838256835938	-1299.361694335938	37.67250442504883	987.393310546875	-1449.397338867188	67.91961669921875	898.609130859375	-1192.084716796875	776.757568359375	663.3917236328125	-1208.668090820312	616.5753784179688	674.8787841796875	-1130.60107421875	801.4630737304688	1065.732666015625	-1174.344604492188	693.601806640625	1036.025390625	-1397.090087890625	50.54616165161133	960.6785278320312	nan	nan	nan	nan	nan	nan	nan	nan	nan	
54	0.53	-1316.216796875	961.2838745117188	934.0157470703125	-1323.552124023438	956.3521118164062	804.1270751953125	-1326.473022460938	1027.786010742188	874.2633666992188	-1073.306274414062	1186.462280273438	840.843994140625	-1316.383422851562	1145.38330078125	871.5030517578125	-1249.080810546875	1386.7470703125	842.4797973632812	-1102.105346679688	1315.7705078125	834.1123046875	-1304.799682617188	1257.173217773438	921.359619140625	-1276.199096679688	1347.411865234375	744.2645874023438	-1196.858520507812	1352.3876953125	677.4360961914062	-1240.42431640625	1232.807373046875	621.6092529296875	-1260.92822265625	1028.558471679688	624.097900390625	-1310.86376953125	1029.06494140625	691.7327880859375	-1248.434814453125	769.3555908203125	623.2052612304688	-1263.817993164062	922.7103881835938	622.2977294921875	-1259.6142578125	702.1316528320312	635.5352172851562	-1197.930053710938	698.7515258789062	654.10693359375	-1177.127685546875	1374.309448242188	1000.151123046875	-1186.767333984375	1312.286254882812	1066.620483398438	-1197.73046875	1044.929077148438	1114.73193359375	-1249.5888671875	1039.502319335938	1035.894287109375	-1151.970703125	796.2140502929688	1139.290405273438	-1179.165161132812	976.1439208984375	1123.621459960938	-1137.09326171875	629.3148803710938	1091.172241210938	-1110.887817382812	698.7533569335938	1085.250366210938	-1148.512573242188	711.3951416015625	1142.166259765625	-1178.961669921875	1589.13427734375	907.8863525390625	-1025.082275390625	1583.031372070312	768.2985229492188	-1021.019714355469	1588.358154296875	868.9912109375	-1211.506103515625	1579.385620117188	767.4368286132812	-1236.7041015625	908.066650390625	694.2783813476562	-1235.048583984375	903.9979858398438	1040.0947265625	-1129.274536132812	928.1152954101562	997.319580078125	-1117.983154296875	927.5123291015625	757.9324340820312	-1006.193054199219	495.3687744140625	686.3196411132812	-1061.535522460938	617.4237060546875	683.5909423828125	-1249.469116210938	131.4765014648438	677.84814453125	-1123.535034179688	299.6315002441406	669.9618530273438	-1057.282836914062	59.02251052856445	721.2039794921875	-1123.761474609375	60.63925170898438	766.1655883789062	-1136.105712890625	85.77072143554688	655.4644775390625	-1278.278686523438	136.1685028076172	747.2166748046875	-1226.599853515625	439.5143127441406	1004.144714355469	-1245.827514648438	319.1079711914062	984.2493286132812	-1200.147338867188	47.42512512207031	925.4711303710938	-1249.355590820312	44.06745147705078	879.0802001953125	-1299.35107421875	37.65423965454102	987.4034423828125	-1448.47705078125	67.23221588134766	899.852783203125	-1193.263061523438	776.9962768554688	665.77880859375	-1211.940185546875	616.951171875	678.3800659179688	-1127.067260742188	801.4609985351562	1066.963989257812	-1172.220336914062	693.2327270507812	1036.18212890625	-1397.038208007812	50.54922103881836	960.8460083007812	nan	nan	nan	nan	nan	nan	nan	nan	nan	
55	0.54	-1311.928466796875	961.9674682617188	934.369140625	-1319.212768554688	957.5280151367188	804.5172119140625	-1321.3408203125	1028.489624023438	875.2887573242188	-1068.616821289062	1187.019897460938	841.131591796875	-1311.766845703125	1146.027465820312	873.4685668945312	-1244.458984375	1387.279052734375	844.1435546875	-1097.57080078125	1316.278198242188	834.6382446289062	-1299.691162109375	1257.748291015625	923.2743530273438	-1272.340454101562	1348.03125	746.1961059570312	-1193.665161132812	1352.982788085938	678.734130859375	-1238.597290039062	1233.72900390625	623.4381713867188	-1260.057739257812	1029.614868164062	626.5244140625	-1309.202758789062	1030.575317382812	694.9024047851562	-1249.518676757812	770.3219604492188	625.551513671875	-1263.753295898438	923.8198852539062	624.9093017578125	-1261.562255859375	703.074951171875	638.3672485351562	-1199.941284179688	698.9447021484375	657.0712280273438	-1171.460815429688	1374.925659179688	1001.192749023438	-1180.762451171875	1312.9892578125	1067.799682617188	-1192.455810546875	1045.6181640625	1115.520629882812	-1244.490234375	1040.445922851562	1036.908813476562	-1147.849365234375	796.8551635742188	1140.559936523438	-1174.078125	976.8390502929688	1124.486572265625	-1134.81591796875	629.5701904296875	1093.0302734375	-1108.017700195312	698.7383422851562	1086.614501953125	-1145.180297851562	712.0364990234375	1143.781616210938	-1173.529052734375	1589.794677734375	909.043701171875	-1020.450134277344	1583.033813476562	768.578125	-1015.823120117188	1588.302124023438	869.2870483398438	-1206.843627929688	1580.255737304688	768.7665405273438	-1232.450927734375	908.9509887695312	694.8193359375	-1231.3935546875	903.8726806640625	1040.458618164062	-1125.292724609375	927.646240234375	997.9710083007812	-1113.917114257812	928.1859130859375	758.789306640625	-998.1495361328125	498.2674255371094	686.9579467773438	-1055.251098632812	620.2122802734375	683.9114990234375	-1233.173828125	128.1581268310547	683.1431884765625	-1111.204711914062	299.1800842285156	672.9862060546875	-1039.60791015625	60.31801986694336	727.298095703125	-1105.987426757812	61.20203018188477	772.326171875	-1118.990112304688	84.39319610595703	661.1939086914062	-1261.928955078125	133.3214416503906	752.537109375	-1226.309692382812	439.6224365234375	1004.338745117188	-1245.880004882812	319.2640686035156	984.4776611328125	-1200.200561523438	47.44771957397461	925.4653930664062	-1249.397094726562	44.16958618164062	879.1655883789062	-1299.3564453125	37.61587905883789	987.41162109375	-1446.746826171875	65.43648529052734	902.2039184570312	-1194.276733398438	777.3143920898438	668.2020263671875	-1214.995971679688	617.43212890625	681.8845825195312	-1123.281005859375	801.587158203125	1068.0517578125	-1170.048095703125	692.9371337890625	1036.2509765625	-1396.983642578125	50.54691314697266	961.0396118164062	nan	nan	nan	nan	nan	nan	nan	nan	nan	
56	0.55	-1307.536010742188	962.65478515625	934.6093139648438	-1314.760131835938	958.7003784179688	804.8080444335938	-1316.025634765625	1029.169677734375	876.1842041015625	-1063.73388671875	1187.561767578125	841.4190063476562	-1307.076049804688	1146.65673828125	875.371337890625	-1239.664672851562	1387.763793945312	845.7076416015625	-1092.861572265625	1316.787109375	835.1427612304688	-1294.46923828125	1258.297485351562	925.0686645507812	-1268.26806640625	1348.617431640625	748.0299072265625	-1190.202514648438	1353.555786132812	679.9723510742188	-1236.5068359375	1234.668823242188	625.1885375976562	-1258.932373046875	1030.702514648438	628.818359375	-1307.358032226562	1032.1162109375	697.89501953125	-1250.361572265625	771.3512573242188	627.771728515625	-1263.440063476562	924.9769287109375	627.3980712890625	-1263.228149414062	704.0734252929688	641.0540771484375	-1201.726806640625	699.2042846679688	659.9822387695312	-1165.728881835938	1375.516357421875	1002.163696289062	-1174.7197265625	1313.68994140625	1068.9072265625	-1187.161010742188	1046.311279296875	1116.296997070312	-1239.329833984375	1041.369262695312	1037.896118164062	-1143.5205078125	797.4893798828125	1141.677734375	-1168.94189453125	977.5272216796875	1125.341186523438	-1132.08740234375	629.9031372070312	1094.568237304688	-1104.815673828125	698.8146362304688	1087.770874023438	-1141.546752929688	712.6764526367188	1145.160278320312	-1168.068969726562	1590.408813476562	910.1229858398438	-1015.78271484375	1583.0732421875	768.7929077148438	-1010.598815917969	1588.314086914062	869.5130004882812	-1202.14599609375	1581.01318359375	770.0132446289062	-1228.044189453125	909.85888671875	695.3011474609375	-1227.714599609375	903.778076171875	1040.74609375	-1121.217895507812	927.1681518554688	998.5148315429688	-1109.694946289062	928.8832397460938	759.5836181640625	-990.4608764648438	500.9764404296875	687.6004638671875	-1049.098510742188	622.8538818359375	684.2385864257812	-1215.988891601562	124.2248458862305	688.1589965820312	-1098.614990234375	298.3203735351562	675.8387451171875	-1020.843933105469	61.46858596801758	732.4324951171875	-1087.010375976562	61.29846954345703	777.681640625	-1100.953979492188	82.82704162597656	666.2693481445312	-1244.56298828125	129.5603637695312	757.6224975585938	-1226.0380859375	439.780517578125	1004.435485839844	-1245.970092773438	319.409423828125	984.6737670898438	-1200.264526367188	47.47893905639648	925.4537353515625	-1249.445434570312	44.25001907348633	879.2392578125	-1299.3828125	37.55152130126953	987.4158935546875	-1444.436767578125	62.81119537353516	905.3851928710938	-1195.115112304688	777.6836547851562	670.6366577148438	-1217.80322265625	617.9810180664062	685.2898559570312	-1119.234008789062	801.8082885742188	1069.006103515625	-1167.805297851562	692.7002563476562	1036.248046875	-1396.915771484375	50.56230163574219	961.2838745117188	nan	nan	nan	nan	nan	nan	nan	nan	nan	
